<svg width="44" height="44" viewBox="0 0 44 44" fill="none" xmlns="http://www.w3.org/2000/svg">
<g opacity="0.15">
<mask id="mask0_3_775" style="mask-type:alpha" maskUnits="userSpaceOnUse" x="0" y="0" width="44" height="44">
<rect width="44" height="44" fill="#C4C4C4"/>
</mask>
<g mask="url(#mask0_3_775)">
<path d="M22.0006 35C21.1731 35 20.3795 34.6769 19.7944 34.1019C19.2093 33.5269 18.8806 32.7469 18.8806 31.9337V31.9082C18.8804 31.731 18.8257 31.5581 18.7236 31.4122C18.6215 31.2662 18.4768 31.1541 18.3086 31.0905C17.3569 30.7233 16.4681 30.2148 15.6732 29.5829C15.5333 29.4692 15.3616 29.3999 15.1808 29.384C15 29.3682 14.8185 29.4065 14.6603 29.494H14.654C13.9337 29.8921 13.0823 29.9939 12.2858 29.7774C11.4893 29.5608 10.8123 29.0433 10.4025 28.338C10.2013 27.9881 10.0722 27.6027 10.0228 27.2037C9.97336 26.8048 10.0045 26.4002 10.1145 26.0131C10.2244 25.626 10.411 25.264 10.6635 24.9479C10.916 24.6318 11.2295 24.3677 11.5861 24.1709L11.5985 24.1637C11.7525 24.0786 11.8772 23.9502 11.9567 23.7951C12.0361 23.64 12.0668 23.4652 12.0447 23.2929C11.9122 22.3606 11.915 21.4146 12.053 20.4831C12.0764 20.3075 12.0457 20.129 11.9649 19.9707C11.8841 19.8124 11.7568 19.6815 11.5996 19.5949L11.5829 19.5857C11.227 19.3883 10.9142 19.1238 10.6624 18.8074C10.4106 18.491 10.2248 18.129 10.1155 17.7419C10.0063 17.3549 9.97575 16.9504 10.0257 16.5518C10.0757 16.1531 10.2051 15.7681 10.4067 15.4186C10.8166 14.7135 11.4936 14.1962 12.2901 13.9796C13.0865 13.7631 13.9378 13.8648 14.6582 14.2627L14.7206 14.2974C14.8788 14.3842 15.0599 14.4223 15.2403 14.4066C15.4208 14.3909 15.5923 14.3223 15.7325 14.2095C16.5123 13.5985 17.3805 13.1055 18.3086 12.7469C18.4771 12.6834 18.6222 12.5714 18.7249 12.4255C18.8275 12.2796 18.8829 12.1066 18.8837 11.9292C18.9196 11.1405 19.2637 10.3958 19.8443 9.85016C20.4249 9.30452 21.1973 9 22.0006 9C22.8039 9 23.5763 9.30452 24.1569 9.85016C24.7375 10.3958 25.0815 11.1405 25.1175 11.9292V11.9435C25.1181 12.1204 25.1729 12.293 25.2748 12.4388C25.3766 12.5846 25.5207 12.697 25.6884 12.7612C26.6065 13.1217 27.4651 13.6139 28.2364 14.2218C28.3766 14.3353 28.5484 14.4046 28.7293 14.4206C28.9102 14.4367 29.0918 14.3987 29.2504 14.3117L29.3419 14.2606C30.0627 13.8626 30.9144 13.761 31.7111 13.978C32.5079 14.1949 33.1849 14.7128 33.5945 15.4186C33.7967 15.7685 33.9266 16.1542 33.9766 16.5536C34.0267 16.953 33.9961 17.3581 33.8864 17.7458C33.7767 18.1335 33.5902 18.496 33.3375 18.8127C33.0849 19.1293 32.771 19.3938 32.4141 19.5908L32.3434 19.6307C32.1891 19.7156 32.0642 19.8438 31.9847 19.999C31.9051 20.1542 31.8747 20.3292 31.8972 20.5015C32.0316 21.4188 32.0351 22.3501 31.9076 23.2684C31.8857 23.4405 31.9163 23.6152 31.9956 23.7702C32.0748 23.9253 32.1991 24.0537 32.3527 24.1392L32.4151 24.1739C32.7726 24.3707 33.0868 24.6353 33.3394 24.9523C33.5921 25.2694 33.7781 25.6326 33.8867 26.0209C34.0445 26.6039 34.0242 27.2198 33.8283 27.7916C33.6324 28.3634 33.2696 28.8658 32.7851 29.2364C32.3007 29.6069 31.7159 29.8291 31.1038 29.8753C30.4917 29.9215 29.8793 29.7896 29.343 29.496L29.3066 29.4756C29.1471 29.3877 28.9643 29.3495 28.7822 29.3662C28.6002 29.3828 28.4276 29.4534 28.2874 29.5686C27.5029 30.1953 26.6262 30.7015 25.6874 31.07C25.5201 31.1344 25.3766 31.2469 25.2754 31.3928C25.1743 31.5387 25.1203 31.7112 25.1206 31.8877V31.9337C25.1206 32.7469 24.7919 33.5269 24.2068 34.1019C23.6216 34.6769 22.8281 35 22.0006 35ZM15.1033 27.3343C15.7881 27.3357 16.4516 27.5685 16.9826 27.9935C17.6124 28.4947 18.3167 28.898 19.0709 29.1894C19.6288 29.4017 20.1081 29.7753 20.4455 30.2609C20.7829 30.7465 20.9625 31.3212 20.9606 31.9092V31.9347C20.9606 32.2058 21.0702 32.4658 21.2652 32.6575C21.4602 32.8491 21.7248 32.9568 22.0006 32.9568C22.2764 32.9568 22.5409 32.8491 22.736 32.6575C22.931 32.4658 23.0406 32.2058 23.0406 31.9347V31.8887C23.0387 31.3037 23.2163 30.7317 23.5502 30.2474C23.8842 29.7631 24.359 29.3891 24.9126 29.174C25.658 28.8843 26.3543 28.4853 26.978 27.9905C27.4421 27.6149 28.0113 27.3867 28.6102 27.3362C29.2091 27.2856 29.8096 27.4151 30.332 27.7073L30.3653 27.7257C30.6063 27.8586 30.891 27.8924 31.1573 27.8198C31.4236 27.7473 31.6499 27.5742 31.787 27.3384C31.854 27.2222 31.897 27.0941 31.9134 26.9615C31.9299 26.8289 31.9195 26.6944 31.8829 26.5658C31.8462 26.4372 31.7841 26.3169 31.7 26.212C31.6159 26.1071 31.5115 26.0195 31.3928 25.9544L31.3283 25.9187C30.8117 25.6337 30.3944 25.2024 30.1307 24.681C29.8671 24.1596 29.7695 23.5722 29.8505 22.9955C29.9517 22.2661 29.9489 21.5265 29.8422 20.7979C29.7617 20.2193 29.8593 19.6303 30.1223 19.1066C30.3853 18.5829 30.8017 18.1486 31.3179 17.8594L31.3918 17.8175C31.511 17.7527 31.6159 17.6652 31.7005 17.5602C31.7851 17.4553 31.8477 17.3349 31.8846 17.206C31.9216 17.0771 31.9322 16.9423 31.9157 16.8094C31.8993 16.6764 31.8563 16.548 31.789 16.4315C31.6515 16.1957 31.4246 16.0229 31.1579 15.9507C30.8912 15.8785 30.6063 15.9128 30.3653 16.0462L30.2769 16.0953C29.7572 16.3853 29.1606 16.5145 28.565 16.466C27.9694 16.4175 27.4025 16.1935 26.9385 15.8234C26.3275 15.3397 25.6469 14.9477 24.9188 14.6602C24.3638 14.4458 23.8876 14.0717 23.5523 13.5871C23.2171 13.1024 23.0384 12.5296 23.0395 11.9435V11.9231C23.0395 11.652 22.93 11.392 22.7349 11.2003C22.5399 11.0087 22.2754 10.901 21.9995 10.901C21.7237 10.901 21.4592 11.0087 21.2642 11.2003C21.0691 11.392 20.9595 11.652 20.9595 11.9231C20.9608 12.5115 20.7806 13.0864 20.4427 13.5721C20.1048 14.0578 19.6251 14.4315 19.0668 14.6439C18.3313 14.9281 17.6432 15.3188 17.0252 15.803C16.5615 16.1698 15.9962 16.3913 15.4028 16.4387C14.8094 16.4861 14.2152 16.3572 13.6972 16.0687L13.638 16.036C13.3969 15.9032 13.1122 15.8693 12.8459 15.9419C12.5796 16.0145 12.3533 16.1875 12.2163 16.4234C12.1493 16.5396 12.1063 16.6676 12.0898 16.8002C12.0734 16.9328 12.0838 17.0673 12.1204 17.1959C12.157 17.3246 12.2192 17.4448 12.3033 17.5497C12.3874 17.6546 12.4918 17.7422 12.6104 17.8073L12.6302 17.8185C13.15 18.1096 13.5691 18.5471 13.8334 19.0745C14.0978 19.6019 14.1952 20.1951 14.1132 20.7775C14.0036 21.5168 14.0012 22.2677 14.106 23.0077C14.189 23.586 14.0921 24.1755 13.8279 24.6987C13.5638 25.2218 13.1448 25.6543 12.626 25.9391L12.6104 25.9483C12.4909 26.0133 12.3857 26.101 12.3009 26.2063C12.2161 26.3116 12.1534 26.4323 12.1164 26.5616C12.0798 26.6897 12.0695 26.8238 12.0861 26.9559C12.1027 27.0881 12.1459 27.2156 12.2132 27.3312C12.3508 27.567 12.5776 27.7399 12.8443 27.8121C13.111 27.8842 13.3959 27.8499 13.6369 27.7165C14.0834 27.4664 14.5884 27.3346 15.1023 27.3343H15.1033ZM22.0006 27.2883C20.9217 27.2883 19.8671 26.9739 18.9701 26.3848C18.073 25.7957 17.3739 24.9585 16.961 23.9789C16.5482 22.9993 16.4401 21.9214 16.6506 20.8815C16.8611 19.8416 17.3806 18.8864 18.1435 18.1366C18.9063 17.3869 19.8783 16.8763 20.9364 16.6695C21.9945 16.4626 23.0913 16.5688 24.088 16.9745C25.0848 17.3803 25.9367 18.0674 26.5361 18.949C27.1355 19.8306 27.4554 20.8671 27.4554 21.9274C27.4543 23.349 26.8793 24.7122 25.8566 25.7176C24.8339 26.7231 23.4471 27.2887 22.0006 27.2903V27.2883ZM22.0006 18.6096C21.3327 18.6096 20.6798 18.8043 20.1245 19.1689C19.5692 19.5336 19.1364 20.0519 18.8808 20.6584C18.6252 21.2648 18.5583 21.9321 18.6886 22.5758C18.8189 23.2196 19.1405 23.811 19.6128 24.2751C20.085 24.7392 20.6867 25.0553 21.3418 25.1834C21.9968 25.3114 22.6758 25.2457 23.2929 24.9945C23.9099 24.7433 24.4373 24.318 24.8084 23.7722C25.1794 23.2264 25.3775 22.5848 25.3775 21.9284C25.3761 21.0488 25.0198 20.2057 24.3868 19.5839C23.7537 18.9621 22.8956 18.6125 22.0006 18.6117V18.6096Z" fill="#2787BD"/>
</g>
</g>
</svg>
