<svg width="44" height="44" viewBox="0 0 44 44" fill="none" xmlns="http://www.w3.org/2000/svg">
<g opacity="0.15">
<mask id="mask0_3_769" style="mask-type:alpha" maskUnits="userSpaceOnUse" x="0" y="0" width="44" height="44">
<rect width="44" height="44" fill="#C4C4C4"/>
</mask>
<g mask="url(#mask0_3_769)">
<path d="M28.6455 17.4308C28.3893 17.5147 28.1103 17.4937 27.8696 17.3725C27.6289 17.2512 27.4461 17.0396 27.3614 16.784C26.9326 15.4856 26.1921 14.3117 25.2045 13.3648C24.2169 12.4179 23.0122 11.7267 21.6955 11.3517C20.3788 10.9767 18.9903 10.9291 17.651 11.2132C16.3117 11.4973 15.0624 12.1044 14.0121 12.9815C12.9618 13.8587 12.1425 14.9791 11.6257 16.2452C11.1089 17.5112 10.9102 18.8843 11.0471 20.2447C11.184 21.605 11.6522 22.9112 12.411 24.0493C13.1697 25.1874 14.1959 26.1227 15.3999 26.7736C15.5255 26.8325 15.6378 26.9163 15.7298 27.02C15.8218 27.1237 15.8916 27.2451 15.9349 27.3767C15.9783 27.5083 15.9942 27.6474 15.9818 27.7854C15.9693 27.9233 15.9288 28.0573 15.8626 28.1791C15.7965 28.3009 15.7061 28.4079 15.5971 28.4935C15.488 28.5792 15.3626 28.6417 15.2284 28.6772C15.0943 28.7127 14.9544 28.7204 14.8171 28.7C14.6799 28.6795 14.5483 28.6313 14.4305 28.5582C5.00465 23.3377 8.61163 9.11389 19.3928 9C21.585 9.00523 23.7201 9.69817 25.4965 10.9809C27.2728 12.2636 28.6006 14.0713 29.2922 16.1485C29.3762 16.4043 29.3552 16.6829 29.2338 16.9233C29.1124 17.1637 28.9005 17.3462 28.6445 17.4308H28.6455ZM22.2911 20.9287C22.2883 20.5805 22.2116 20.2367 22.0661 19.9202C21.9206 19.6036 21.7095 19.3215 21.4468 19.0923C20.9208 18.634 20.2447 18.3844 19.5466 18.3907C19.0537 18.3907 18.682 18.172 18.682 17.8822C18.682 17.7474 18.7357 17.6181 18.8312 17.5227C18.9267 17.4274 19.0562 17.3738 19.1912 17.3738C19.7296 17.38 20.2613 17.4945 20.7544 17.7104C21.0018 17.7909 21.2707 17.7738 21.5059 17.6626C21.741 17.5513 21.9247 17.3544 22.019 17.1123C22.1134 16.8701 22.1113 16.6011 22.0132 16.3604C21.9151 16.1197 21.7285 15.9256 21.4917 15.818C21.2051 15.7053 20.9123 15.6089 20.6149 15.5292V15.2943C20.6149 15.0247 20.5076 14.766 20.3166 14.5753C20.1256 14.3846 19.8666 14.2775 19.5965 14.2775C19.3264 14.2775 19.0674 14.3846 18.8764 14.5753C18.6855 14.766 18.5782 15.0247 18.5782 15.2943V15.4194C15.5761 16.3264 16.2064 20.4305 19.5436 20.4213C19.9295 20.4213 20.2564 20.6542 20.2564 20.9298C20.2514 21.0672 20.1928 21.1973 20.0931 21.2923C19.9934 21.3873 19.8606 21.4396 19.7228 21.4382C19.1284 21.4059 18.5434 21.2757 17.9916 21.0528C17.7451 20.9716 17.4769 20.9874 17.2418 21.097C17.0066 21.2066 16.8222 21.4017 16.7263 21.6425C16.6303 21.8833 16.6301 22.1516 16.7256 22.3926C16.8211 22.6336 17.0051 22.829 17.2401 22.9391C17.6746 23.1104 18.1234 23.2431 18.5812 23.3356V23.4678C18.5812 23.7375 18.6885 23.9962 18.8795 24.1869C19.0705 24.3776 19.3295 24.4847 19.5996 24.4847C19.8697 24.4847 20.1287 24.3776 20.3196 24.1869C20.5106 23.9962 20.6179 23.7375 20.6179 23.4678V23.3102C21.1071 23.1317 21.5297 22.8077 21.8287 22.3819C22.1278 21.956 22.2888 21.4488 22.29 20.9287H22.2911ZM33.9817 28.1881C33.7116 28.1881 33.4526 28.2952 33.2616 28.4859C33.0706 28.6766 32.9633 28.9352 32.9633 29.2049V33.974C32.9633 34.2437 33.0706 34.5023 33.2616 34.693C33.4526 34.8837 33.7116 34.9908 33.9817 34.9908C34.2517 34.9908 34.5108 34.8837 34.7017 34.693C34.8927 34.5023 35 34.2437 35 33.974V29.2029C34.9995 28.9336 34.8919 28.6754 34.701 28.4852C34.5101 28.2949 34.2514 28.1881 33.9817 28.1881ZM29.9154 29.3554C29.6453 29.3554 29.3863 29.4626 29.1953 29.6533C29.0043 29.844 28.8971 30.1026 28.8971 30.3723V33.974C28.8971 34.2437 29.0043 34.5023 29.1953 34.693C29.3863 34.8837 29.6453 34.9908 29.9154 34.9908C30.1855 34.9908 30.4445 34.8837 30.6355 34.693C30.8265 34.5023 30.9338 34.2437 30.9338 33.974V30.3703C30.9332 30.1009 30.8257 29.8428 30.6348 29.6525C30.4438 29.4623 30.1851 29.3554 29.9154 29.3554ZM25.8492 31.5925C25.5791 31.5925 25.3201 31.6996 25.1291 31.8903C24.9381 32.081 24.8308 32.3397 24.8308 32.6094V33.974C24.8308 34.2437 24.9381 34.5023 25.1291 34.693C25.3201 34.8837 25.5791 34.9908 25.8492 34.9908C26.1192 34.9908 26.3783 34.8837 26.5692 34.693C26.7602 34.5023 26.8675 34.2437 26.8675 33.974V32.6033C26.867 32.3339 26.7594 32.0758 26.5685 31.8856C26.3776 31.6953 26.1189 31.5884 25.8492 31.5884V31.5925ZM21.7829 30.7292C21.5128 30.7292 21.2538 30.8363 21.0628 31.027C20.8718 31.2177 20.7646 31.4764 20.7646 31.7461V33.9831C20.7646 34.2528 20.8718 34.5115 21.0628 34.7022C21.2538 34.8929 21.5128 35 21.7829 35C22.053 35 22.312 34.8929 22.503 34.7022C22.694 34.5115 22.8012 34.2528 22.8012 33.9831V31.7461C22.8018 31.6121 22.7758 31.4793 22.7248 31.3554C22.6738 31.2315 22.5988 31.1189 22.5041 31.024C22.4093 30.9292 22.2968 30.8539 22.1728 30.8026C22.0489 30.7513 21.916 30.725 21.7819 30.7251L21.7829 30.7292ZM14.1362 34.9888C13.9354 34.9874 13.7395 34.9267 13.5732 34.8144C13.4068 34.7022 13.2774 34.5433 13.2013 34.3578C13.1251 34.1723 13.1055 33.9685 13.145 33.7719C13.1845 33.5753 13.2814 33.3948 13.4233 33.253L19.3144 27.4051L19.3511 27.3705C19.9721 26.8107 20.7713 26.4878 21.6075 26.459C22.4437 26.4301 23.2632 26.6972 23.9214 27.2129L24.007 27.2749L24.0375 27.2983C24.3418 27.5378 24.7259 27.6529 25.112 27.6202C25.4981 27.5876 25.8573 27.4096 26.117 27.1224L26.1312 27.1061L29.7331 23.2767C29.9214 23.0952 30.1725 22.993 30.4342 22.9914C30.6959 22.9899 30.9482 23.089 31.1387 23.2682C31.3292 23.4474 31.4433 23.693 31.4573 23.954C31.4712 24.2149 31.384 24.4713 31.2138 24.6698L27.619 28.4921C27.0147 29.1561 26.1815 29.5676 25.2863 29.6443C24.3911 29.7211 23.4999 29.4574 22.7911 28.906L22.7055 28.8429L22.675 28.8195C22.3959 28.5984 22.0479 28.482 21.6917 28.4907C21.3355 28.4994 20.9937 28.6327 20.7259 28.8673L14.851 34.6939C14.6614 34.8818 14.4053 34.9877 14.1382 34.9888H14.1362ZM34.999 25.1416V22.3961C34.999 21.587 34.6771 20.8111 34.1042 20.239C33.5313 19.6669 32.7542 19.3455 31.9439 19.3455H29.1944C28.9243 19.3455 28.6653 19.4526 28.4743 19.6433C28.2834 19.834 28.1761 20.0927 28.1761 20.3624C28.1761 20.632 28.2834 20.8907 28.4743 21.0814C28.6653 21.2721 28.9243 21.3792 29.1944 21.3792H31.9439C32.214 21.3792 32.473 21.4863 32.664 21.677C32.855 21.8677 32.9623 22.1264 32.9623 22.3961V25.1416C32.9623 25.4113 33.0696 25.6699 33.2606 25.8606C33.4515 26.0513 33.7106 26.1584 33.9806 26.1584C34.2507 26.1584 34.5097 26.0513 34.7007 25.8606C34.8917 25.6699 34.999 25.4113 34.999 25.1416Z" fill="#2787BD"/>
</g>
</g>
</svg>
