<svg width="44" height="44" viewBox="0 0 44 44" fill="none" xmlns="http://www.w3.org/2000/svg">
<g opacity="0.15">
<mask id="mask0_3_765" style="mask-type:alpha" maskUnits="userSpaceOnUse" x="0" y="0" width="44" height="44">
<rect width="44" height="44" fill="#C4C4C4"/>
</mask>
<g mask="url(#mask0_3_765)">
<path d="M28.9056 34.9969H15.0934C13.4778 34.9942 11.9292 34.3511 10.787 33.2085C9.64475 32.0659 9.00215 30.5171 9 28.9015V20.3566C9.00293 19.4197 9.22057 18.496 9.63622 17.6564C10.0519 16.8169 10.6544 16.0837 11.3977 15.5134L18.3048 10.2461C19.3673 9.43771 20.6655 9 22.0005 9C23.3355 9 24.6337 9.43771 25.6962 10.2461L27.8904 11.9184V10.6224C27.8904 10.3527 27.9976 10.0939 28.1884 9.90314C28.3791 9.71237 28.6379 9.60519 28.9077 9.60519C29.1775 9.60519 29.4362 9.71237 29.627 9.90314C29.8177 10.0939 29.9249 10.3527 29.9249 10.6224V13.9692C29.9238 14.1576 29.8704 14.342 29.7706 14.5018C29.6708 14.6616 29.5286 14.7906 29.3599 14.8743C29.1911 14.9581 29.0024 14.9933 28.8148 14.9761C28.6272 14.9589 28.448 14.89 28.2973 14.7769L24.4623 11.8615C23.7539 11.3226 22.8885 11.0308 21.9985 11.0308C21.1085 11.0308 20.243 11.3226 19.5347 11.8615L12.6296 17.1288C12.1348 17.5092 11.7338 17.998 11.4573 18.5575C11.1808 19.117 11.0362 19.7324 11.0345 20.3566V28.9015C11.0345 29.9789 11.4618 31.0123 12.2227 31.7751C12.9836 32.5379 14.0159 32.9678 15.0934 32.9705H28.9056C29.9837 32.9689 31.0171 32.5395 31.7789 31.7766C32.5407 31.0136 32.9685 29.9796 32.9685 28.9015V20.3566C32.9704 19.7314 32.8288 19.1142 32.5548 18.5524C32.2807 17.9905 31.8815 17.499 31.3877 17.1156C31.2734 17.0378 31.1762 16.9376 31.1019 16.821C31.0276 16.7045 30.9779 16.574 30.9558 16.4375C30.9336 16.3011 30.9395 16.1616 30.973 16.0275C31.0066 15.8934 31.0672 15.7675 31.151 15.6576C31.2348 15.5477 31.3401 15.456 31.4606 15.3882C31.581 15.3203 31.714 15.2777 31.8514 15.263C31.9889 15.2483 32.1279 15.2617 32.26 15.3025C32.392 15.3433 32.5144 15.4105 32.6196 15.5002C33.3613 16.0738 33.9616 16.8098 34.3742 17.6517C34.7869 18.4936 35.001 19.4189 35 20.3566V28.9015C34.9978 30.5172 34.3551 32.0662 33.2127 33.2088C32.0703 34.3514 30.5214 34.9944 28.9056 34.9969ZM19.969 20.7278C19.718 20.7278 19.4725 20.8023 19.2637 20.9418C19.055 21.0813 18.8922 21.2796 18.7962 21.5116C18.7001 21.7435 18.6749 21.9988 18.7239 22.2451C18.7729 22.4913 18.8938 22.7175 19.0714 22.8951C19.2489 23.0726 19.4751 23.1935 19.7214 23.2425C19.9676 23.2915 20.2229 23.2664 20.4549 23.1703C20.6869 23.0742 20.8851 22.9115 21.0246 22.7027C21.1641 22.4939 21.2386 22.2485 21.2386 21.9974C21.2386 21.6607 21.1048 21.3378 20.8667 21.0997C20.6287 20.8616 20.3058 20.7278 19.969 20.7278ZM25.3015 21.9974C25.3015 22.3346 25.1675 22.658 24.9291 22.8965C24.6906 23.135 24.3672 23.2689 24.0299 23.2689C23.6927 23.2689 23.3693 23.135 23.1308 22.8965C22.8923 22.658 22.7584 22.3346 22.7584 21.9974C22.7584 21.6603 22.8923 21.337 23.1306 21.0986C23.369 20.8602 23.6923 20.7263 24.0294 20.7263C24.3665 20.7263 24.6898 20.8602 24.9282 21.0986C25.1666 21.337 25.3005 21.6603 25.3005 21.9974H25.3015ZM21.2386 26.0603C21.2386 26.3975 21.1046 26.721 20.8661 26.9594C20.6277 27.1979 20.3043 27.3319 19.967 27.3319C19.6298 27.3319 19.3063 27.1979 19.0679 26.9594C18.8294 26.721 18.6954 26.3975 18.6954 26.0603C18.6954 25.8933 18.7282 25.7279 18.792 25.5736C18.8559 25.4193 18.9495 25.2791 19.0675 25.161C19.3059 24.9225 19.6293 24.7884 19.9665 24.7882C20.3037 24.7881 20.6272 24.9219 20.8658 25.1603C20.9839 25.2783 21.0776 25.4185 21.1416 25.5727C21.2056 25.727 21.2385 25.8923 21.2386 26.0593V26.0603ZM25.3015 26.0603C25.3015 26.3975 25.1675 26.721 24.9291 26.9594C24.6906 27.1979 24.3672 27.3319 24.0299 27.3319C23.6927 27.3319 23.3693 27.1979 23.1308 26.9594C22.8923 26.721 22.7584 26.3975 22.7584 26.0603C22.7582 25.7232 22.892 25.3998 23.1303 25.1614C23.3686 24.9229 23.6918 24.7889 24.0289 24.7887C24.366 24.7886 24.6894 24.9224 24.9278 25.1607C25.1663 25.3989 25.3003 25.7222 25.3005 26.0593L25.3015 26.0603Z" fill="#2787BD"/>
</g>
</g>
</svg>
