<svg width="35" height="35" viewBox="0 0 35 35" fill="none" xmlns="http://www.w3.org/2000/svg">
<mask id="mask0_3_740" style="mask-type:alpha" maskUnits="userSpaceOnUse" x="0" y="0" width="35" height="35">
<rect width="35" height="35" fill="#C4C4C4"/>
</mask>
<g mask="url(#mask0_3_740)">
<g filter="url(#filter0_d_3_740)">
<path d="M26 23.1383C26 23.0913 26 23.0443 26 22.9972C25.9927 22.6139 25.887 22.239 25.6933 21.9093C25.4996 21.5797 25.2245 21.3067 24.895 21.117C24.7537 21.0402 24.6376 20.9236 24.5607 20.7811C24.4839 20.6387 24.4497 20.4765 24.4624 20.3147V15.6385C24.4722 14.1386 24.0068 12.6748 23.1346 11.4618C22.2623 10.2488 21.0291 9.35033 19.6153 8.89784C19.1889 8.75996 18.7427 8.67852 18.2791 8.56989V7.83875C18.2791 7.81995 18.2791 7.80117 18.2791 7.78341C18.279 7.58452 18.2045 7.39302 18.0703 7.24762C17.9362 7.10222 17.7524 7.01375 17.5563 7H17.4437C17.2476 7.01375 17.0638 7.10222 16.9297 7.24762C16.7955 7.39302 16.721 7.58452 16.7209 7.78341C16.7209 7.80222 16.7209 7.821 16.7209 7.83875V8.56989C16.2573 8.67434 15.8111 8.75996 15.3847 8.89784C13.9709 9.35033 12.7377 10.2488 11.8654 11.4618C10.9932 12.6748 10.5278 14.1386 10.5376 15.6385V20.3086C10.5495 20.4703 10.515 20.632 10.4383 20.7743C10.3615 20.9166 10.2457 21.0335 10.1048 21.1109C9.77532 21.3005 9.50027 21.5733 9.30656 21.903C9.11285 22.2326 9.0072 22.6075 9 22.9909C9 23.0379 9 23.0849 9 23.1319C9 23.1403 9 23.1475 9 23.1548C9.01133 23.7347 9.2355 24.2896 9.62887 24.7115C10.0222 25.1333 10.5567 25.392 11.1283 25.4373H11.1778H11.1933H11.279H11.3523H16.7219C16.7219 25.6462 16.7333 25.8384 16.7219 26.0253C16.6865 26.2367 16.7304 26.4538 16.845 26.6341C16.9596 26.8143 17.1367 26.9449 17.3415 27H17.6513C17.8561 26.9449 18.0331 26.8143 18.1477 26.6341C18.2623 26.4538 18.3063 26.2367 18.2709 26.0253C18.2605 25.8384 18.2709 25.6503 18.2709 25.4373H23.6404H23.7138H23.7995H23.815H23.8646C24.4361 25.392 24.9706 25.1333 25.3639 24.7115C25.7573 24.2896 25.9815 23.7347 25.9928 23.1548L26 23.1383Z" fill="url(#paint0_linear_3_740)"/>
</g>
</g>
<defs>
<filter id="filter0_d_3_740" x="1" y="2" width="33" height="36" filterUnits="userSpaceOnUse" color-interpolation-filters="sRGB">
<feFlood flood-opacity="0" result="BackgroundImageFix"/>
<feColorMatrix in="SourceAlpha" type="matrix" values="0 0 0 0 0 0 0 0 0 0 0 0 0 0 0 0 0 0 127 0" result="hardAlpha"/>
<feOffset dy="3"/>
<feGaussianBlur stdDeviation="4"/>
<feComposite in2="hardAlpha" operator="out"/>
<feColorMatrix type="matrix" values="0 0 0 0 0 0 0 0 0 0 0 0 0 0 0 0 0 0 0.25 0"/>
<feBlend mode="normal" in2="BackgroundImageFix" result="effect1_dropShadow_3_740"/>
<feBlend mode="normal" in="SourceGraphic" in2="effect1_dropShadow_3_740" result="shape"/>
</filter>
<linearGradient id="paint0_linear_3_740" x1="14.4372" y1="9.5" x2="21.4965" y2="27.4452" gradientUnits="userSpaceOnUse">
<stop stop-color="#00BCC8"/>
<stop offset="1" stop-color="#2787BD"/>
</linearGradient>
</defs>
</svg>
