<svg width="44" height="44" viewBox="0 0 44 44" fill="none" xmlns="http://www.w3.org/2000/svg">
<g opacity="0.15">
<mask id="mask0_3_772" style="mask-type:alpha" maskUnits="userSpaceOnUse" x="0" y="0" width="44" height="44">
<rect width="44" height="44" fill="#C4C4C4"/>
</mask>
<g mask="url(#mask0_3_772)">
<path d="M28.9064 35H15.0936C13.4783 34.9973 11.93 34.3544 10.7878 33.2123C9.64559 32.0701 9.00272 30.5217 9.00004 28.9064V22.8128C8.99571 21.6487 9.39217 20.5186 10.1228 19.6124C10.8534 18.7061 11.8737 18.0789 13.0122 17.8362V15.0966C13.0141 13.4808 13.6566 11.9317 14.7989 10.7888C15.9412 9.64598 17.49 9.00269 19.1058 9H28.9064C30.5223 9.00269 32.0711 9.64598 33.2134 10.7888C34.3556 11.9317 34.9982 13.4808 35 15.0966V28.9064C34.9973 30.5217 34.3545 32.0701 33.2123 33.2123C32.0701 34.3544 30.5217 34.9973 28.9064 35ZM13.0122 19.939C12.4247 20.1529 11.9186 20.5447 11.5641 21.0598C11.2097 21.5749 11.0246 22.1876 11.0346 22.8128V28.9064C11.0365 29.9826 11.4647 31.0143 12.2254 31.7756C12.9861 32.5368 14.0174 32.9658 15.0936 32.9685H28.9064C29.9832 32.9666 31.0153 32.538 31.7767 31.7766C32.538 31.0153 32.9666 29.9832 32.9685 28.9064V15.0966C32.9685 14.0187 32.5408 12.9847 31.7792 12.2218C31.0176 11.4589 29.9844 11.0294 28.9064 11.0275H19.1058C18.0279 11.0294 16.9947 11.4589 16.2331 12.2218C15.4715 12.9847 15.0438 14.0187 15.0438 15.0966V29.1088C15.0438 29.3787 14.9366 29.6374 14.7458 29.8282C14.555 30.019 14.2963 30.1261 14.0265 30.1261C13.7567 30.1261 13.4979 30.019 13.3071 29.8282C13.1164 29.6374 13.0092 29.3787 13.0092 29.1088L13.0122 19.939ZM30.938 15.5504C30.938 15.2806 30.8308 15.0218 30.64 14.831C30.4492 14.6402 30.1905 14.5331 29.9207 14.5331H18.0906C17.8208 14.5331 17.562 14.6402 17.3712 14.831C17.1805 15.0218 17.0733 15.2806 17.0733 15.5504C17.0733 15.8202 17.1805 16.0789 17.3712 16.2697C17.562 16.4605 17.8208 16.5676 18.0906 16.5676H29.9217C30.1913 16.5674 30.4498 16.4601 30.6404 16.2693C30.8309 16.0786 30.938 15.82 30.938 15.5504ZM30.9888 25.0468C30.9888 24.777 30.8817 24.5182 30.6909 24.3275C30.5001 24.1367 30.2414 24.0295 29.9715 24.0295H26.0122C25.7424 24.0295 25.4837 24.1367 25.2929 24.3275C25.1021 24.5182 24.9949 24.777 24.9949 25.0468C24.9949 25.3166 25.1021 25.5754 25.2929 25.7661C25.4837 25.9569 25.7424 26.0641 26.0122 26.0641H29.9736C30.243 26.0635 30.5013 25.9561 30.6916 25.7654C30.8819 25.5747 30.9888 25.3162 30.9888 25.0468ZM23.0163 25.0468C23.0163 24.777 22.9091 24.5182 22.7184 24.3275C22.5276 24.1367 22.2688 24.0295 21.999 24.0295H18.0906C17.8208 24.0295 17.562 24.1367 17.3712 24.3275C17.1805 24.5182 17.0733 24.777 17.0733 25.0468C17.0733 25.3166 17.1805 25.5754 17.3712 25.7661C17.562 25.9569 17.8208 26.0641 18.0906 26.0641H22.0011C22.2705 26.0635 22.5287 25.9561 22.7191 25.7654C22.9094 25.5747 23.0163 25.3162 23.0163 25.0468ZM23.0163 29.1088C23.0163 28.839 22.9091 28.5803 22.7184 28.3895C22.5276 28.1987 22.2688 28.0916 21.999 28.0916H18.0906C17.8208 28.0916 17.562 28.1987 17.3712 28.3895C17.1805 28.5803 17.0733 28.839 17.0733 29.1088C17.0733 29.3787 17.1805 29.6374 17.3712 29.8282C17.562 30.019 17.8208 30.1261 18.0906 30.1261H22.0011C22.2703 30.1256 22.5284 30.0183 22.7187 29.8278C22.909 29.6373 23.016 29.3791 23.0163 29.1099V29.1088ZM28.9064 29.1088C28.9064 28.839 28.7993 28.5803 28.6085 28.3895C28.4177 28.1987 28.159 28.0916 27.8891 28.0916H26.0122C25.7424 28.0916 25.4837 28.1987 25.2929 28.3895C25.1021 28.5803 24.9949 28.839 24.9949 29.1088C24.9949 29.3787 25.1021 29.6374 25.2929 29.8282C25.4837 30.019 25.7424 30.1261 26.0122 30.1261H27.8912C28.1605 30.1256 28.4185 30.0183 28.6088 29.8278C28.7992 29.6373 28.9062 29.3791 28.9064 29.1099V29.1088ZM29.9726 21.999H22.6094C22.3396 21.999 22.0808 21.8918 21.8901 21.701C21.6993 21.5102 21.5921 21.2515 21.5921 20.9817C21.5921 20.7119 21.6993 20.4531 21.8901 20.2624C22.0808 20.0716 22.3396 19.9644 22.6094 19.9644H29.9726C30.2425 19.9644 30.5014 20.0716 30.6923 20.2625C30.8831 20.4534 30.9904 20.7123 30.9904 20.9822C30.9904 21.2521 30.8831 21.511 30.6923 21.7019C30.5014 21.8928 30.2425 22 29.9726 22V21.999ZM17.0743 20.88C17.0737 21.1312 17.1476 21.3769 17.2868 21.5861C17.4259 21.7953 17.624 21.9585 17.8559 22.0551C18.0878 22.1516 18.3432 22.1772 18.5897 22.1286C18.8362 22.0799 19.0627 21.9593 19.2405 21.7818C19.4184 21.6044 19.5396 21.3782 19.5888 21.1318C19.6381 20.8855 19.6131 20.63 19.5171 20.3979C19.4211 20.1657 19.2584 19.9672 19.0495 19.8276C18.8407 19.688 18.5951 19.6134 18.3439 19.6134C18.0072 19.6134 17.6842 19.7472 17.4461 19.9853C17.2081 20.2234 17.0743 20.5463 17.0743 20.883V20.88Z" fill="#2787BD"/>
</g>
</g>
</svg>
